<svg xmlns="http://www.w3.org/2000/svg" width="24" height="24" viewBox="0 0 24 24"><title>vkontake</title><path fill="#333" d="M12 0C5.382 0 0 5.383 0 12s5.383 12 12 12c6.618 0 12-5.383 12-12S18.617 0 12 0"/><path d="M6.681 10.152h2.281V17.5H6.681zm1.141-1.004A1.321 1.321 0 0 1 6.5 7.824a1.323 1.323 0 1 1 2.643 0 1.322 1.322 0 0 1-1.321 1.324M17.5 17.5h-2.279v-3.573c0-.852-.015-1.947-1.185-1.947-1.187 0-1.367.928-1.367 1.887V17.5h-2.276v-7.348h2.186v1.005h.03c.305-.578 1.049-1.188 2.156-1.188 2.309 0 2.734 1.522 2.734 3.5V17.5z" fill="#FFF"/></svg>