<svg width="24" height="24" viewBox="0 0 24 24" xmlns="http://www.w3.org/2000/svg"><title>twitter</title><path d="M17.262 9.385c.006.113.008.226.008.34 0 3.478-2.648 7.49-7.49 7.49a7.452 7.452 0 0 1-4.034-1.184 5.294 5.294 0 0 0 3.897-1.09 2.635 2.635 0 0 1-2.458-1.828c.396.075.803.06 1.188-.045a2.632 2.632 0 0 1-2.111-2.58v-.034c.355.197.762.315 1.192.329a2.63 2.63 0 0 1-.814-3.514 7.463 7.463 0 0 0 5.425 2.75 2.632 2.632 0 0 1 4.485-2.4c.6-.12 1.95-.265 1.95-.265-.352.528-.723 1.659-1.238 2.03M12 0C5.383 0 0 5.383 0 12s5.383 12 12 12 12-5.383 12-12S18.617 0 12 0" fill="#333" fill-rule="evenodd"/></svg>