<svg width="24" height="24" viewBox="0 0 24 24" xmlns="http://www.w3.org/2000/svg"><title>vkontake</title><path d="M18.314 16.471l-2.002.022s-.432.078-.998-.312c-.748-.513-1.454-1.867-2.005-1.692-.757.238-.305 1.288-.664 1.673-.069.075-1.205.048-1.306.048 0 0-1.978.252-3.72-1.562-1.9-1.98-3.577-5.774-3.577-5.774s-.099-.257.006-.38c.119-.142.44-.15.44-.15l2.143-.014s.202.034.348.141a.66.66 0 0 1 .186.25c.293.747 1.73 3.766 2.42 3.39.461-.252.401-2.784.087-3.209-.178-.243-.516-.315-.665-.334-.12-.017.079-.297.335-.424.384-.189 1.066-.198 1.87-.19.627.006.809.046 1.053.104 1.184.286-.039 3.515.776 4.041.608.394 2.091-2.622 2.402-3.447 0 0 .079-.17.2-.243.122-.074.29-.05.29-.05l2.256-.016s.678-.08.788.226c.114.321-.253 1.07-1.175 2.3-1.512 2.016-1.68 1.826-.424 2.992 1.198 1.113 1.448 1.654 1.488 1.721.497.825-.552.89-.552.89M12 0C5.382 0 0 5.383 0 12s5.384 12 12 12c6.618 0 12-5.383 12-12S18.619 0 12 0" fill="#333" fill-rule="evenodd"/></svg>