<svg width="112" height="32" viewBox="0 0 112 32" xmlns="http://www.w3.org/2000/svg" xmlns:xlink="http://www.w3.org/1999/xlink"><title>ZenMate/Logo</title><defs><path d="M1.311 1.935c6.45-2.58 18.894-2.58 25.346 0a2.08 2.08 0 0 1 1.303 2.11c-.414 4.795-2.524 20.205-12.778 27.359a2.095 2.095 0 0 1-2.396 0C2.532 24.25.422 8.841.008 4.044A2.081 2.081 0 0 1 1.31 1.936zM13.52 28.747a.757.757 0 0 0 .93.001c6.773-5.272 9.94-15.427 10.847-23.942a.753.753 0 0 0-.536-.8C14.373.913 5.502 3.263 3.195 3.992a.753.753 0 0 0-.523.798c.91 8.513 4.061 18.676 10.847 23.957zm.444-23.727c2.774 0 5.504.315 8.146.938.248.059.41.297.374.549-.962 6.587-3.417 14.243-8.152 18.922a.494.494 0 0 1-.694 0C8.902 20.75 6.449 13.095 5.485 6.48a.49.49 0 0 1 .374-.55c2.417-.563 5.234-.911 8.104-.911zm.876 15.684c2.352-3.544 3.834-8.023 4.654-12.137a.463.463 0 0 0-.384-.55 33.397 33.397 0 0 0-4.65-.43.467.467 0 0 0-.475.464v12.397a.467.467 0 0 0 .855.256z" id="a"/><path id="c" d="M0 0h63.925v64.924H0z"/></defs><g fill="none" fill-rule="evenodd"><mask id="b" fill="#fff"><use xlink:href="#a"/></mask><use fill="#008ACE" xlink:href="#a"/><g style="mix-blend-mode:luminosity" mask="url(#b)"><g transform="translate(-17.58 -22.974)"><mask id="d" fill="#fff"><use xlink:href="#c"/></mask><g mask="url(#d)" fill="#46D5FA"><path d="M35.296 81.115c-16.609 6.983-48.643 6.981-65.25 0-2.194-.922-3.558-3.24-3.356-5.707 1.067-12.978 6.5-54.675 32.897-74.034a5.179 5.179 0 0 1 6.17.001C32.152 20.735 37.584 62.43 38.65 75.408c.204 2.47-1.158 4.784-3.355 5.707" fill-opacity=".2"/><path d="M47.032-37.43c-24.92-9.608-72.985-9.606-97.901 0-3.293 1.27-5.34 4.459-5.036 7.854 1.6 17.858 9.752 75.233 49.36 101.87 2.778 1.87 6.476 1.868 9.255 0C42.316 45.654 50.466-11.72 52.067-29.577c.305-3.4-1.739-6.583-5.035-7.854" fill-opacity=".4"/></g></g></g><path d="M107.612 14.071c-1 0-1.803.33-2.408.986-.605.658-.959 1.606-1.06 2.845h6.42c0-1.2-.26-2.14-.783-2.816-.522-.676-1.245-1.015-2.169-1.015zm.277 9.91c-1.51 0-2.687-.464-3.53-1.391-.845-.928-1.267-2.227-1.267-3.897 0-1.652.408-2.975 1.224-3.969.815-.994 1.914-1.491 3.296-1.491 1.223 0 2.188.425 2.895 1.277.708.85 1.061 2.007 1.061 3.468v.762h-7.482c.013 1.423.346 2.51.999 3.259.652.75 1.587 1.124 2.804 1.124a8.73 8.73 0 0 0 1.562-.124c.45-.082 1.018-.26 1.706-.533v.857a7.62 7.62 0 0 1-1.624.52 9.042 9.042 0 0 1-1.644.138zm-8.007-.839c.598 0 1.12-.05 1.567-.152v.762c-.459.153-.987.229-1.586.229-.918 0-1.595-.245-2.031-.734-.436-.489-.654-1.258-.654-2.306v-6.689h-1.539V13.7l1.539-.43.477-2.343h.488v2.506h3.048v.82h-3.048v6.555c0 .794.14 1.381.42 1.763.28.38.72.571 1.319.571zm-10.626-.019c1.108 0 1.983-.316 2.623-.948.64-.632.96-1.51.96-2.634v-1.02l-1.815.076c-1.46.07-2.5.297-3.12.682-.621.384-.932.983-.932 1.796 0 .648.2 1.15.597 1.51.398.359.96.538 1.687.538zm3.822.667l-.239-1.639h-.076c-.523.667-1.06 1.139-1.61 1.415-.551.277-1.203.415-1.954.415-1.02 0-1.813-.26-2.38-.782-.567-.52-.85-1.241-.85-2.163 0-1.01.422-1.794 1.266-2.353.844-.559 2.065-.854 3.664-.886l1.979-.057v-.686c0-.985-.201-1.728-.602-2.23-.402-.502-1.048-.753-1.94-.753-.962 0-1.96.267-2.991.8l-.354-.819c1.14-.533 2.268-.8 3.383-.8 1.14 0 1.992.295 2.556.886.564.59.846 1.512.846 2.763v6.89h-.698zm-16.808 0l-5.208-12.863h-.076c.05.788.076 1.594.076 2.42V23.79h-.936V9.86h1.51l4.95 12.253h.057l4.95-12.253h1.471v13.93h-.984V13.233c0-.737.038-1.5.115-2.287h-.077L76.891 23.79h-.62zm-9.641 0h-2.256v-6.48c0-.812-.164-1.419-.492-1.819-.328-.4-.848-.6-1.562-.6-.95 0-1.644.28-2.083.838-.44.56-.66 1.496-.66 2.811v5.25h-2.245V13.252h1.758l.316 1.381h.114c.319-.501.77-.889 1.357-1.162a4.559 4.559 0 0 1 1.95-.41c2.535 0 3.803 1.286 3.803 3.86v6.87zm-16.37-9.033c-.713 0-1.285.226-1.714.677-.43.45-.687 1.108-.77 1.972h4.797c-.012-.87-.223-1.53-.63-1.977-.408-.448-.969-.672-1.682-.672zm.412 9.224c-1.644 0-2.929-.478-3.856-1.434s-1.39-2.273-1.39-3.95c0-1.721.43-3.074 1.29-4.059.86-.984 2.041-1.477 3.545-1.477 1.395 0 2.497.423 3.306 1.268.81.844 1.214 2.007 1.214 3.487v1.21h-7.043c.032 1.023.31 1.809.832 2.358.522.55 1.257.824 2.207.824a8.17 8.17 0 0 0 1.744-.176 9.17 9.17 0 0 0 1.734-.586v1.82a6.915 6.915 0 0 1-1.663.553c-.56.108-1.2.162-1.92.162zm-6.852-.19h-9.995v-1.583l7.043-10.395h-6.852V9.86h9.613v1.6l-7.07 10.377h7.261v1.953z" fill="#333"/></g></svg>