<?xml version="1.0" encoding="UTF-8" standalone="no"?>
<svg width="16px" height="16px" viewBox="0 0 16 16" version="1.1" xmlns="http://www.w3.org/2000/svg" xmlns:xlink="http://www.w3.org/1999/xlink">
  <path d="M 8,0 C 5.8273125,0 5.5407812,0.0235625 4.6875,0.0625 3.8359688,0.101375 3.258875,0.20846875 2.75,0.40625 2.2239375,0.6106875 1.7885,0.89900005 1.34375,1.34375 0.89900005,1.7885 0.6106875,2.2239375 0.40625,2.75 0.20846875,3.258875 0.101375,3.8359688 0.0625,4.6875 0.0235625,5.5407812 0,5.8273125 0,8 c 0,2.172688 0.0235625,2.459219 0.0625,3.3125 0.038875,0.851531 0.14596875,1.428625 0.34375,1.9375 0.2044375,0.526062 0.49275005,0.9615 0.9375,1.40625 C 1.7885,15.101 2.2239375,15.389312 2.75,15.59375 3.258875,15.791531 3.8359688,15.898625 4.6875,15.9375 5.5407812,15.976438 5.8273125,16 8,16 c 2.172688,0 2.459219,-0.02357 3.3125,-0.0625 0.851531,-0.03887 1.428625,-0.145969 1.9375,-0.34375 0.526062,-0.204438 0.9615,-0.49275 1.40625,-0.9375 C 15.101,14.2115 15.389312,13.776062 15.59375,13.25 15.791531,12.741125 15.898625,12.164031 15.9375,11.3125 15.976438,10.459224 16,10.172688 16,8 16,5.8273125 15.976438,5.5407812 15.9375,4.6875 15.898625,3.8359688 15.791531,3.258875 15.59375,2.75 15.389312,2.2239375 15.101,1.7885 14.65625,1.34375 14.2115,0.89900005 13.776062,0.6106875 13.25,0.40625 12.741125,0.20846875 12.164031,0.101375 11.3125,0.0625 10.459219,0.0235625 10.172688,0 8,0 z m 0,1.4375 c 2.136094,0 2.375156,0.024035 3.21875,0.0625 0.779968,0.035594 1.218093,0.1404688 1.5,0.25 0.373406,0.145125 0.626313,0.3450625 0.90625,0.625 0.279938,0.2799375 0.479875,0.5328438 0.625,0.90625 0.109531,0.2819063 0.214406,0.7200313 0.25,1.5 0.03847,0.8435937 0.0625,1.0826563 0.0625,3.21875 0,2.136094 -0.02408,2.375156 -0.0625,3.21875 -0.03559,0.779968 -0.140469,1.218093 -0.25,1.5 -0.145125,0.373406 -0.345062,0.626313 -0.625,0.90625 -0.279937,0.279938 -0.532844,0.479875 -0.90625,0.625 -0.281907,0.109531 -0.720032,0.214406 -1.5,0.25 C 10.375281,14.53847 10.13625,14.5625 8,14.5625 5.86375,14.5625 5.6247187,14.53842 4.78125,14.5 4.0012813,14.464406 3.5631563,14.359531 3.28125,14.25 2.9078438,14.104875 2.6549375,13.904938 2.375,13.625 2.0950625,13.345063 1.895125,13.092156 1.75,12.71875 1.6404688,12.436843 1.5355937,11.998718 1.5,11.21875 1.4615312,10.375156 1.4375,10.136094 1.4375,8 1.4375,5.8639063 1.461535,5.6248437 1.5,4.78125 1.5355937,4.0012813 1.6404688,3.5631563 1.75,3.28125 1.895125,2.9078438 2.0950625,2.6549375 2.375,2.375 2.6549375,2.0950625 2.9078438,1.895125 3.28125,1.75 3.5631563,1.6404688 4.0012813,1.5355937 4.78125,1.5 5.6248437,1.4615312 5.8639063,1.4375 8,1.4375 z m 4.28125,1.34375 c -0.530188,0 -0.96875,0.4073126 -0.96875,0.9375 0,0.5301875 0.438562,0.96875 0.96875,0.96875 0.530187,0 0.9375,-0.4385625 0.9375,-0.96875 0,-0.5301874 -0.407313,-0.9375 -0.9375,-0.9375 z M 8,3.90625 C 5.7311562,3.90625 3.90625,5.7311562 3.90625,8 c 0,2.268844 1.8249062,4.09375 4.09375,4.09375 2.268844,0 4.09375,-1.824906 4.09375,-4.09375 C 12.09375,5.7311562 10.268844,3.90625 8,3.90625 z m 0,1.4375 c 1.47275,0 2.65625,1.1834687 2.65625,2.65625 0,1.47275 -1.1835,2.65625 -2.65625,2.65625 C 6.52725,10.65625 5.34375,9.47275 5.34375,8 5.34375,6.5272187 6.52725,5.34375 8,5.34375 z" style="fill:#000000;stroke:none" />
</svg>
